<svg id="Calque_2" data-name="Calque 2" xmlns="http://www.w3.org/2000/svg" viewBox="65 0 0.1 78"><defs><style>.cls-1,.cls-3{fill:none;}.cls-1,.cls-2,.cls-3{stroke:#1d1d1b;stroke-miterlimit:10;}.cls-1,.cls-2{stroke-width:2px;}.cls-2{fill:#fff;}</style></defs><polyline class="cls-1" points="15.5 58 37.52 58 46.61 47.5 46.61 33.09"/><polyline class="cls-1" points="44 50.5 44 36 43.5 36 49.52 30 49.52 22 42.94 15.31 30.16 15.31 26.5 22 23.1 15.31 11.16 15.31 2.77 22 2.77 30 9.5 36"/><polyline class="cls-1" points="18.5 22.5 18.2 22.5 13.5 22.5 13.5 30 20 30 20 23.91"/><line class="cls-2" x1="3.18" y1="7.79" x2="25.18" y2="28.79"/><rect class="cls-2" x="25.5" y="28" width="2" height="4"/><line class="cls-1" x1="8.5" y1="64" x2="23.1" y2="64"/><line class="cls-1" x1="30.16" y1="64" x2="42.94" y2="64"/><polygon class="cls-1" points="27.5 31 30.16 35.77 26.5 41.55 23.1 35.77 25.5 31 27.5 31"/><polyline class="cls-1" points="35 22 40.5 22 40.5 30 33.5 30 33.5 23.5"/><polyline class="cls-2" points="42.2 15.31 28.5 28 50.1 8"/><rect class="cls-3" x="24.5" y="28" width="4" height="4"/><polyline class="cls-1" points="6 33.09 6 46.63 9.5 50.5"/><polyline class="cls-1" points="9.5 50.5 9.5 36 23.5 36"/><line class="cls-1" x1="29.5" y1="36" x2="44.5" y2="36"/><line class="cls-2" x1="15.8" y1="58" x2="8.9" y2="49.84"/></svg>